<svg width="68" height="38" viewBox="0 0 68 38" fill="none" xmlns="http://www.w3.org/2000/svg">
<path d="M32.7682 10.7387C32.7682 10.7387 31.1602 0.334961 23.4101 0.334961C16.0715 0.334961 0.33093 0.420295 0.33093 0.420295C0.33093 0.420295 1.93045 10.8032 9.68195 10.8032C17.0064 10.8032 32.7682 10.7387 32.7682 10.7387Z" fill="#244563"/>
<path d="M57.4101 13.7306L7.01751 13.7742C7.01751 13.7742 8.61845 24.157 16.3784 24.157C20.8319 24.157 59.0549 24.1153 59.0549 24.1153C64.074 24.1153 67.3042 29.1133 67.3042 29.1133C67.3042 13.6888 57.4101 13.7324 57.4101 13.7324" fill="#244563"/>
<path d="M3.10004 34.1741C4.50722 35.947 6.52112 37.335 9.35952 37.335C16.6966 37.335 68 37.2497 68 37.2497C68 37.2497 67.778 35.9035 67.15 34.1741H3.10004Z" fill="#AB9475"/>
<path d="M65.6127 31.0133C64.19 28.8139 62.0022 26.8476 58.6419 26.8476C51.3019 26.8476 0 26.9347 0 26.9347C0 26.9347 0.306888 28.8348 1.23322 31.015H65.6127V31.0133Z" fill="#AB9475"/>
</svg>
