<svg width="629" height="488" viewBox="0 0 629 488" fill="none" xmlns="http://www.w3.org/2000/svg">
<path fill-rule="evenodd" clip-rule="evenodd" d="M185.896 487.02L224.157 403.075L217.971 417.101C225.924 431.124 235.207 442.916 245.821 452.476C265.197 470.053 288.38 478.841 315.368 478.841C342.357 478.841 365.608 470.053 385.123 452.476C404.499 434.899 419.447 409.779 429.965 377.116C440.484 344.453 445.743 305.562 445.743 260.443C445.743 215.324 440.484 176.433 429.965 143.77C419.447 111.107 404.499 85.987 385.123 68.41C383.129 66.6141 381.096 64.9099 379.024 63.2975L405.582 5.03047L396.015 0.669922L176.329 482.66L185.896 487.02ZM229.628 410.955C227.929 407.995 226.298 404.944 224.737 401.802L373.328 75.7938C383.744 84.4356 393.004 95.8145 401.108 109.931C422.007 146.33 432.456 196.501 432.456 260.443C432.456 303.071 427.751 339.747 418.339 370.473C408.79 401.059 395.295 424.588 377.857 441.058C360.28 457.389 339.45 465.555 315.368 465.555C279.107 465.555 250.527 447.355 229.628 410.955ZM2.53483 295.138L99.2252 40.8783L113.246 46.21L16.5553 300.47C14.4398 306.033 18.5487 311.991 24.5002 311.991H90.2355C103.214 311.991 113.735 322.513 113.735 335.491V478.842H98.7355V335.491C98.7355 330.797 94.9299 326.991 90.2355 326.991H24.5002C8.04618 326.991 -3.31372 310.518 2.53483 295.138ZM517.072 295.138L613.762 40.8783L627.783 46.21L531.092 300.47C528.977 306.033 533.086 311.991 539.037 311.991H604.772C617.751 311.991 628.272 322.513 628.272 335.491V478.842H613.272V335.491C613.272 330.797 609.467 326.991 604.772 326.991H539.037C522.583 326.991 511.223 310.518 517.072 295.138Z" fill="#244563"/>
</svg>
